Coordinates
version=1
nRows=14
nColumns=40
inDegrees=yes

Units are S.I. units (second, meters, Newtons, ...)
If the header above contains a line with 'inDegrees', this indicates whether rotational values are in degrees (yes) or radians (no).

endheader
time	pelvis_tilt	pelvis_list	pelvis_rotation	pelvis_tx	pelvis_ty	pelvis_tz	hip_flexion_r	hip_adduction_r	hip_rotation_r	knee_angle_r	knee_angle_r_beta	ankle_angle_r	subtalar_angle_r	mtp_angle_r	hip_flexion_l	hip_adduction_l	hip_rotation_l	knee_angle_l	knee_angle_l_beta	ankle_angle_l	subtalar_angle_l	mtp_angle_l	lumbar_extension	lumbar_bending	lumbar_rotation	arm_flex_r	arm_add_r	arm_rot_r	elbow_flex_r	pro_sup_r	wrist_flex_r	wrist_dev_r	arm_flex_l	arm_add_l	arm_rot_l	elbow_flex_l	pro_sup_l	wrist_flex_l	wrist_dev_l
      3.82500000	    -37.70407682	      7.47280625	      6.70325168	     -0.40834772	      0.68436908	     -0.92545468	     94.62009004	    -17.70667083	     17.40732478	     92.26671583	      1.61035798	     36.95145548	      0.00000000	      0.00000000	     91.78330606	     -4.00803522	      0.53576337	     86.99509242	      1.51835080	     32.75693022	      0.00000000	      0.00000000	    -31.68336509	     -5.92827460	     -2.48858195	    -19.40047848	    -56.95783255	     38.80683335	     99.20014244	     88.11419037	      0.00000000	      0.00000000	     16.04945847	    -65.76893101	     68.81148433	     99.93045249	     87.88598944	      0.00000000	      0.00000000
      3.83000000	    -37.27645053	      7.46263685	      6.78830100	     -0.40618973	      0.68838423	     -0.92553946	     93.66698627	    -17.87081108	     17.25071575	     91.82895338	      1.60271759	     36.82840556	      0.00000000	      0.00000000	     90.88302047	     -3.73032806	      0.62888824	     86.48270453	      1.50940794	     32.64719170	      0.00000000	      0.00000000	    -31.52702581	     -5.87887004	     -2.49832003	    -19.25137642	    -56.80360524	     38.77703969	     98.95272743	     88.10870589	      0.00000000	      0.00000000	     16.06414531	    -65.54436951	     68.59183937	     99.68688098	     87.87119530	      0.00000000	      0.00000000
      3.83500000	    -36.98098721	      7.55876473	      6.70710597	     -0.40401329	      0.69222472	     -0.92558230	     92.89055835	    -17.86992626	     17.20878447	     91.32308894	      1.59388859	     36.69652797	      0.00000000	      0.00000000	     90.06869035	     -3.58363512	      0.65296125	     85.96749932	      1.50041591	     32.52284131	      0.00000000	      0.00000000	    -31.18625443	     -6.02121507	     -2.40857989	    -19.19805289	    -56.71741342	     38.78501206	     98.80832803	     88.10814571	      0.00000000	      0.00000000	     16.00049190	    -65.37168416	     68.54530132	     99.55899654	     87.86860643	      0.00000000	      0.00000000
      3.84000000	    -36.35208512	      7.70953500	      6.35577063	     -0.40126277	      0.69642064	     -0.92477843	     91.74233474	    -17.60750227	     17.14696489	     90.88081025	      1.58616937	     36.69852757	      0.00000000	      0.00000000	     88.88005148	     -3.75319687	      0.59246766	     85.56783236	      1.49344041	     32.69963058	      0.00000000	      0.00000000	    -31.05673247	     -6.45504725	     -2.72325138	    -16.86163564	    -56.75562822	     41.14049133	     98.08126697	     88.11667070	      0.00000000	      0.00000000	     16.54657018	    -65.01974835	     73.15430901	    105.48653060	     88.08393926	      0.00000000	      0.00000000
      3.84500000	    -35.94766447	      7.69608280	      6.47294449	     -0.39901929	      0.70070940	     -0.92518227	     90.77979662	    -17.81585205	     17.01594216	     90.32741064	      1.57651072	     36.48818368	      0.00000000	      0.00000000	     87.97628162	     -3.41027748	      0.68502650	     84.98226627	      1.48322035	     32.49315024	      0.00000000	      0.00000000	    -30.78576474	     -6.36482692	     -2.72949213	    -16.84466612	    -56.65470484	     41.09022276	     97.91890055	     88.10642634	      0.00000000	      0.00000000	     16.58859554	    -64.70302849	     73.12182821	    105.35462228	     88.06958153	      0.00000000	      0.00000000
      3.85000000	    -35.35917721	      7.79424541	      6.31953890	     -0.39637953	      0.70497675	     -0.92491877	     89.69890955	    -17.83883154	     16.84762903	     89.93964808	      1.56974299	     36.38414242	      0.00000000	      0.00000000	     86.85779254	     -3.30760576	      0.74513439	     84.55780857	      1.47581217	     32.47319274	      0.00000000	      0.00000000	    -30.65106325	     -6.52589996	     -2.57528981	    -16.71944282	    -56.41453221	     40.96727635	     97.50591362	     88.09785160	      0.00000000	      0.00000000	     16.77411735	    -64.44721532	     73.04513189	    104.79126363	     88.06049167	      0.00000000	      0.00000000
      3.85500000	    -34.65242286	      7.87346740	      6.18831377	     -0.39352679	      0.70971807	     -0.92477586	     88.42499433	    -17.88560657	     16.68731253	     89.44143865	      1.56104759	     36.24617513	      0.00000000	      0.00000000	     85.57305178	     -3.19187705	      0.78038672	     84.04506230	      1.46686306	     32.42780645	      0.00000000	      0.00000000	    -30.64541044	     -6.62433421	     -2.40957813	    -16.60942641	    -56.19201877	     40.89708419	     97.15593429	     88.09119968	      0.00000000	      0.00000000	     16.92864931	    -64.17404540	     72.98180939	    104.41751884	     88.04955349	      0.00000000	      0.00000000
      3.86000000	    -34.11108719	      7.82679828	      6.16740538	     -0.39091539	      0.71427833	     -0.92468318	     87.26829565	    -17.96612262	     16.42532554	     88.91622753	      1.55188093	     36.08584284	      0.00000000	      0.00000000	     84.50449679	     -3.03219866	      0.91838801	     83.48038265	      1.45700754	     32.32508683	      0.00000000	      0.00000000	    -30.40860087	     -6.60962780	     -2.29086810	    -16.56631275	    -55.97321694	     40.83581281	     96.85292148	     88.09004573	      0.00000000	      0.00000000	     16.97993796	    -63.87714875	     72.94712261	    104.05233929	     88.04831719	      0.00000000	      0.00000000
      3.86500000	    -33.41834082	      7.79497038	      6.24866817	     -0.38823745	      0.71913217	     -0.92498295	     85.98510531	    -18.24987738	     16.12196278	     88.42871389	      1.54337221	     35.89884744	      0.00000000	      0.00000000	     83.26411117	     -2.70074440	      1.11921370	     82.89873389	      1.44685585	     32.22907342	      0.00000000	      0.00000000	    -30.31924829	     -6.48043543	     -2.29800652	    -16.48428170	    -55.79521326	     40.73641683	     96.49574315	     88.09002425	      0.00000000	      0.00000000	     17.08260862	    -63.52316820	     72.86450363	    103.57368890	     88.03584940	      0.00000000	      0.00000000
      3.87000000	    -32.77725975	      7.69448093	      6.15129101	     -0.38551015	      0.72387545	     -0.92476365	     84.71688654	    -18.27975534	     15.76011883	     87.90559944	      1.53424214	     35.74631198	      0.00000000	      0.00000000	     82.10174694	     -2.65750369	      1.31103403	     82.36069246	      1.43746526	     32.16855985	      0.00000000	      0.00000000	    -30.11820579	     -6.42439829	     -2.11713338	    -16.44331668	    -55.57932756	     40.64105332	     96.13924229	     88.09143718	      0.00000000	      0.00000000	     17.11303537	    -63.25737542	     72.79180807	    103.17898797	     88.03315272	      0.00000000	      0.00000000
      3.87500000	    -32.16943921	      7.79013719	      5.78977070	     -0.38261509	      0.72877295	     -0.92398638	     83.52165686	    -18.01853791	     15.67560823	     87.29005406	      1.52349885	     35.48295286	      0.00000000	      0.00000000	     80.85672895	     -2.86851153	      1.21982678	     81.75647130	      1.42691961	     32.04025823	      0.00000000	      0.00000000	    -29.87461005	     -6.70479295	     -1.81362361	    -16.37668517	    -55.29425151	     40.55624776	     95.84711756	     88.07825660	      0.00000000	      0.00000000	     17.10770531	    -63.02204906	     72.66133055	    102.74991767	     88.02093446	      0.00000000	      0.00000000
      3.88000000	    -30.82411468	      7.86358405	      5.63528932	     -0.37837448	      0.73529898	     -0.92376259	     81.40216549	    -18.23378527	     15.29727505	     86.73090819	      1.51373991	     35.25367250	      0.00000000	      0.00000000	     78.75163036	     -2.76134291	      1.25987871	     81.15473145	      1.41641727	     32.01464248	      0.00000000	      0.00000000	    -30.46207458	     -6.72551733	     -1.70524754	    -16.28786354	    -54.89535916	     40.43441121	     95.30397854	     88.06757336	      0.00000000	      0.00000000	     17.15057370	    -62.61176504	     72.48981890	    102.12819008	     88.01335377	      0.00000000	      0.00000000
      3.88500000	    -29.59272269	      7.94007286	      5.62200555	     -0.37450817	      0.74170408	     -0.92383200	     79.41561168	    -18.59131468	     14.90208013	     86.14990066	      1.50359942	     35.11533095	      0.00000000	      0.00000000	     76.77704441	     -2.50697337	      1.31598734	     80.48934717	      1.40480412	     31.96832372	      0.00000000	      0.00000000	    -30.90219927	     -6.68625663	     -1.76099382	    -16.20092826	    -54.61340649	     40.23725413	     94.92921611	     88.06715736	      0.00000000	      0.00000000	     17.18494880	    -62.35401337	     72.32735277	    101.65175418	     88.02055637	      0.00000000	      0.00000000
      3.89000000	    -29.83312047	      7.75793640	      5.52616826	     -0.37335345	      0.74464190	     -0.92384259	     79.26056934	    -18.39340342	     14.72333265	     85.60577787	      1.49410268	     34.76016135	      0.00000000	      0.00000000	     76.69836980	     -2.57006436	      1.52010539	     79.98200767	      1.39594938	     31.77016575	      0.00000000	      0.00000000	    -29.53807808	     -6.67233496	     -1.48148598	    -16.55279496	    -54.49574983	     40.06495224	     94.77904079	     88.07093816	      0.00000000	      0.00000000	     16.87285601	    -62.13582801	     72.19854137	    101.34039496	     88.02210582	      0.00000000	      0.00000000
